<svg
      fill="none"
      stroke="currentColor"
      strokeLinecap="round"
      strokeLinejoin="round"
      strokeWidth={2}
      viewBox="0 0 24 24"
      height="1em"
      width="1em"
xmlns="http://www.w3.org/2000/svg"
xmlns:xlink="http://www.w3.org/1999/xlink"
       data-name="Layer 1"
    >
      <path stroke="none" d="M0 0h24v24H0z" />
      <path d="M4 4 H20 A1 1 0 0 1 21 5 V15 A1 1 0 0 1 20 16 H4 A1 1 0 0 1 3 15 V5 A1 1 0 0 1 4 4 z" />
      <path d="M7 20h10M9 16v4M15 16v4M9 12V8M12 12v-1M15 12v-2M12 12v-1" />
    </svg>