<svg id="Layer_1" data-name="Layer 1" xmlns="http://www.w3.org/2000/svg" xmlns:xlink="http://www.w3.org/1999/xlink" viewBox="0 0 401.75 405.56"><defs><style>.cls-1{fill:#2a335b;}.cls-2{fill:#313b6d;}.cls-3{fill:#262e59;}.cls-4{fill:#7d98e2;}.cls-5{fill:#5f72b7;}.cls-6{fill:url(#linear-gradient);}.cls-7{fill:url(#linear-gradient-2);}.cls-8{fill:url(#linear-gradient-3);}.cls-9{fill:url(#linear-gradient-4);}.cls-10{fill:url(#linear-gradient-5);}.cls-11{fill:url(#linear-gradient-6);}.cls-12{fill:url(#linear-gradient-7);}.cls-13{fill:url(#linear-gradient-8);}</style><linearGradient id="linear-gradient" x1="415.89" y1="202.44" x2="754.8" y2="573.57" gradientUnits="userSpaceOnUse"><stop offset="0" stop-color="#2c3161"/><stop offset="1" stop-color="#6771e5"/></linearGradient><linearGradient id="linear-gradient-2" x1="412.46" y1="495.83" x2="751.37" y2="866.96" gradientTransform="translate(-425.76 407.32) rotate(-46)" xlink:href="#linear-gradient"/><linearGradient id="linear-gradient-3" x1="199.03" y1="697.17" x2="537.94" y2="1068.3" gradientTransform="translate(-428.51 996.54) rotate(-92)" xlink:href="#linear-gradient"/><linearGradient id="linear-gradient-4" x1="-94.06" y1="683.5" x2="244.85" y2="1054.63" gradientTransform="matrix(-0.74, -0.67, 0.67, -0.74, -6.58, 1407.82)" xlink:href="#linear-gradient"/><linearGradient id="linear-gradient-5" x1="-287.83" y1="463.17" x2="51.08" y2="834.31" gradientTransform="translate(582.37 1390.01) rotate(176)" xlink:href="#linear-gradient"/><linearGradient id="linear-gradient-6" x1="-263.94" y1="170.74" x2="74.97" y2="541.87" gradientTransform="matrix(-0.64, 0.77, -0.77, -0.64, 978.68, 953.98)" xlink:href="#linear-gradient"/><linearGradient id="linear-gradient-7" x1="-36.99" y1="-15.22" x2="301.92" y2="355.91" gradientTransform="translate(940.32 366.01) rotate(84)" xlink:href="#linear-gradient"/><linearGradient id="linear-gradient-8" x1="275.72" y1="-5.36" x2="614.63" y2="365.77" gradientTransform="translate(490.73 -14.84) rotate(38)" xlink:href="#linear-gradient"/></defs><title>HAUK ai</title><polygon class="cls-1" points="114.49 169.25 128.93 264.53 217.34 299.86 291.29 239.91 276.84 144.63 188.44 109.3 114.49 169.25"/><polygon class="cls-2" points="114.49 169.25 202.89 204.58 276.84 144.63 188.44 109.3 114.49 169.25"/><polygon class="cls-3" points="202.89 204.58 217.34 299.86 128.93 264.53 114.49 169.25 202.89 204.58"/><polygon class="cls-4" points="202.89 204.58 202.17 199.84 248.71 167.43 207.01 206.51 202.89 204.58"/><polygon class="cls-5" points="248.71 167.43 202.89 204.58 207.01 206.51 248.71 167.43"/><polygon class="cls-4" points="202.89 204.58 199.09 207.51 148.18 182.51 202.58 200.04 202.89 204.58"/><polygon class="cls-5" points="148.18 182.51 202.89 204.58 202.58 200.04 148.18 182.51"/><polygon class="cls-4" points="202.89 204.58 207.29 206.48 210.11 263.13 199.06 207.05 202.89 204.58"/><polygon class="cls-5" points="210.11 263.13 202.89 204.58 199.06 207.05 210.11 263.13"/><path class="cls-6" d="M555.93,361.37h0l2.92,107.29,130-77h0a81.5,81.5,0,0,0-84.34,3.23l-8.37,5.51-.84-17.29A26.45,26.45,0,0,0,555.93,361.37Z" transform="translate(-411.33 -357.94)"/><polygon class="cls-2" points="277.53 33.75 184.82 42.5 144.59 3.43 147.51 110.72 277.53 33.75"/><path class="cls-7" d="M429,464.72h0l79.2,72.43,35-147h0a81.5,81.5,0,0,0-56.26,62.91l-1.85,9.85-13-11.41A26.45,26.45,0,0,0,429,464.72Z" transform="translate(-411.33 -357.94)"/><polygon class="cls-2" points="131.86 32.22 73.75 104.98 17.7 106.78 96.9 179.21 131.86 32.22"/><path class="cls-8" d="M415.23,627.8h0l107.12-6.66L440.89,493.88h0a81.5,81.5,0,0,0,6.17,84.18l5.8,8.17-17.25,1.44A26.45,26.45,0,0,0,415.23,627.8Z" transform="translate(-411.33 -357.94)"/><polygon class="cls-2" points="29.56 135.94 41.53 228.29 3.9 269.86 111.02 263.2 29.56 135.94"/><path class="cls-9" d="M522.95,751h0l69.62-81.68L444.44,639.52h0a81.5,81.5,0,0,0,64.84,54l9.91,1.5-10.95,13.41A26.45,26.45,0,0,0,522.95,751Z" transform="translate(-411.33 -357.94)"/><polygon class="cls-2" points="33.11 281.58 107.86 337.12 111.61 393.07 181.24 311.39 33.11 281.58"/><path class="cls-10" d="M686.41,759.11h0L676,652.29,551.67,738.14h0A81.5,81.5,0,0,0,635.58,729l8-6.08,2,17.19A26.45,26.45,0,0,0,686.41,759.11Z" transform="translate(-411.33 -357.94)"/><polygon class="cls-2" points="140.34 380.2 232.21 365.01 275.07 401.17 264.68 294.35 140.34 380.2"/><path class="cls-11" d="M805.78,647.16h0l-84.06-66.73L697.1,729.51h0a81.5,81.5,0,0,0,51.74-66.69l1.16-10,13.79,10.47A26.45,26.45,0,0,0,805.78,647.16Z" transform="translate(-411.33 -357.94)"/><polygon class="cls-2" points="285.77 371.57 338.66 294.93 394.45 289.22 310.39 222.49 285.77 371.57"/><path class="cls-12" d="M808.17,483.51h0L701.78,497.63,791.92,618.9h0a81.5,81.5,0,0,0-12-83.54l-6.36-7.75L790.64,525A26.45,26.45,0,0,0,808.17,483.51Z" transform="translate(-411.33 -357.94)"/><polygon class="cls-2" points="380.58 260.96 362.19 169.67 396.84 125.58 290.45 139.69 380.58 260.96"/><path class="cls-13" d="M723.8,362.14h0L660,448.48l149.85,19.4h0a81.5,81.5,0,0,0-68.45-49.38l-10-.81,10-14.14A26.45,26.45,0,0,0,723.8,362.14Z" transform="translate(-411.33 -357.94)"/><polygon class="cls-2" points="398.56 109.94 320.12 59.76 312.47 4.2 248.71 90.54 398.56 109.94"/></svg>